<svg width="326" height="73" viewBox="0 0 326 73" fill="none" xmlns="http://www.w3.org/2000/svg">
<path d="M1.42188 27.1875C1.17188 25.6875 1.01562 24.1875 0.953125 22.6875C0.953125 21.1875 0.953125 19.6875 0.953125 18.1875V8.34375C0.953125 6.46875 1.14062 5.0625 1.51562 4.125C1.95312 3.1875 2.57812 2.53125 3.39062 2.15625C4.26562 1.71875 5.32812 1.5 6.57812 1.5C7.82812 1.4375 9.26562 1.40625 10.8906 1.40625H33.6719C34.9844 1.40625 36.4219 1.46875 37.9844 1.59375C39.5469 1.65625 40.8594 2.125 41.9219 3C42.7969 3.75 43.5156 5.15625 44.0781 7.21875C44.6406 9.21875 45.0469 11.5625 45.2969 14.25C45.6094 16.9375 45.7969 19.8125 45.8594 22.875C45.9844 25.875 46.0469 28.7812 46.0469 31.5938C46.0469 34.4062 46.0156 36.9375 45.9531 39.1875C45.8906 41.4375 45.8594 43.0938 45.8594 44.1562C45.8594 44.7188 45.8594 45.7188 45.8594 47.1562C45.8594 48.5938 45.8594 50.25 45.8594 52.125C45.8594 53.9375 45.8281 55.8438 45.7656 57.8438C45.7656 59.8438 45.7344 61.7188 45.6719 63.4688C45.6094 65.2188 45.5156 66.7188 45.3906 67.9688C45.2656 69.1562 45.1094 69.875 44.9219 70.125C44.5469 70.5625 43.9531 70.9062 43.1406 71.1562C42.3281 71.3438 41.4531 71.5 40.5156 71.625C39.6406 71.75 38.7656 71.8438 37.8906 71.9062C37.0156 71.9062 36.2969 71.9062 35.7344 71.9062C33.7969 71.9062 32.0469 71.9688 30.4844 72.0938C28.9219 72.2812 27.5469 72.25 26.3594 72C25.1719 71.6875 24.1406 71.0625 23.2656 70.125C22.3906 69.125 21.7031 67.5 21.2031 65.25C20.2656 61.25 19.7969 57.125 19.7969 52.875C19.7969 51.3125 20.0156 49.75 20.4531 48.1875C20.8906 46.625 21.3594 45.1562 21.8594 43.7812C22.3594 42.4062 22.8281 41.1562 23.2656 40.0312C23.7031 38.9062 23.9219 37.9375 23.9219 37.125C23.9219 36.8125 23.7969 36.5312 23.5469 36.2812C23.3594 36.0312 23.1719 35.8438 22.9844 35.7188C22.0469 35.7188 21.2344 36.5 20.5469 38.0625C19.9219 39.5625 19.3906 41.3125 18.9531 43.3125C18.5781 45.25 18.2969 47.1562 18.1094 49.0312C17.9844 50.9062 17.9219 52.1875 17.9219 52.875C17.9219 54.375 18.0156 55.875 18.2031 57.375C18.4531 58.8125 18.7031 60.25 18.9531 61.6875C19.2656 63.125 19.5469 64.5625 19.7969 66C20.0469 67.4375 20.1719 68.875 20.1719 70.3125C20.1719 70.625 20.1406 70.9062 20.0781 71.1562C20.0781 71.4062 20.0469 71.6875 19.9844 72C19.2969 72.0625 18.5781 72.0938 17.8281 72.0938C17.0781 72.1562 16.3594 72.1875 15.6719 72.1875C14.0469 72.1875 12.4531 72.1562 10.8906 72.0938C9.39062 72.0312 7.82812 72 6.20312 72C4.39062 72 3.17188 71.6875 2.54688 71.0625C1.98438 70.375 1.64062 69.125 1.51562 67.3125C1.26562 62.4375 1.07812 57.5625 0.953125 52.6875C0.890625 47.75 0.859375 42.8438 0.859375 37.9688C0.859375 35.2812 1.39062 32.9062 2.45312 30.8438C3.51562 28.7812 4.92188 27.0312 6.67188 25.5938C8.48438 24.1562 10.5156 23 12.7656 22.125C15.0781 21.25 17.4531 20.6562 19.8906 20.3438C20.1406 20.2812 20.6094 20.2188 21.2969 20.1562C21.9844 20.0938 22.7031 20 23.4531 19.875C24.2031 19.75 24.8594 19.5625 25.4219 19.3125C25.9844 19.0625 26.2656 18.75 26.2656 18.375C26.2656 17.6875 25.9219 17.2812 25.2344 17.1562C24.5469 17.0312 23.9844 16.9688 23.5469 16.9688C20.9219 16.9688 18.4219 17.5 16.0469 18.5625C13.7344 19.5625 11.6406 20.7188 9.76562 22.0312C7.89062 23.2812 6.23438 24.4688 4.79688 25.5938C3.42188 26.6562 2.32812 27.2188 1.51562 27.2812L1.42188 27.1875ZM64.6094 24.0938L65.4531 24.5625C67.2031 24.5625 68.7031 23.9688 69.9531 22.7812C71.2031 21.5938 72.2969 20.125 73.2344 18.375C74.2344 16.5625 75.1406 14.625 75.9531 12.5625C76.7656 10.5 77.6094 8.59375 78.4844 6.84375C79.4219 5.03125 80.4219 3.53125 81.4844 2.34375C82.5469 1.15625 83.7969 0.5625 85.2344 0.5625C90.5469 0.5625 93.2031 3.21875 93.2031 8.53125C93.2031 10.8437 92.9844 13.125 92.5469 15.375C92.1719 17.625 91.7656 19.8438 91.3281 22.0312C91.0781 23.2188 90.7969 24.125 90.4844 24.75C90.1719 25.375 89.7969 25.9062 89.3594 26.3438C88.9219 26.7812 88.3906 27.2188 87.7656 27.6562C87.1406 28.0938 86.4219 28.6875 85.6094 29.4375C86.2344 30.1875 86.8281 30.8438 87.3906 31.4062C87.9531 31.9688 88.4531 32.5312 88.8906 33.0938C89.3906 33.6562 89.7969 34.3125 90.1094 35.0625C90.4844 35.75 90.7656 36.6562 90.9531 37.7812C91.7031 42.4688 92.1094 47.4688 92.1719 52.7812C92.2969 58.0312 92.3594 63.0625 92.3594 67.875C92.3594 69.3125 92.1094 70.4375 91.6094 71.25C91.1719 72.0625 90.1406 72.4688 88.5156 72.4688C87.1406 72.4688 86.0781 72.2812 85.3281 71.9062C84.6406 71.5312 84.1094 71 83.7344 70.3125C83.3594 69.625 83.1094 68.8125 82.9844 67.875C82.8594 66.9375 82.7031 65.9375 82.5156 64.875C82.3281 63.9375 81.9531 62.625 81.3906 60.9375C80.8906 59.25 80.2344 57.4062 79.4219 55.4062C78.6719 53.4062 77.7969 51.4062 76.7969 49.4062C75.7969 47.3438 74.7344 45.4688 73.6094 43.7812C72.5469 42.0938 71.4531 40.7188 70.3281 39.6562C69.2031 38.5938 68.1094 38.0625 67.0469 38.0625C66.7969 38.0625 66.5781 38.1875 66.3906 38.4375C66.2656 38.6875 66.2031 38.9062 66.2031 39.0938C66.2031 39.5312 66.5469 40.1875 67.2344 41.0625C67.9844 41.9375 68.8594 43.0312 69.8594 44.3438C70.9219 45.5938 72.0781 47.0312 73.3281 48.6562C74.5781 50.2812 75.7031 52.0625 76.7031 54C77.7656 55.9375 78.6406 58.0312 79.3281 60.2812C80.0781 62.4688 80.4531 64.7812 80.4531 67.2188C80.4531 67.5938 80.4219 68.0625 80.3594 68.625C80.3594 69.125 80.2656 69.625 80.0781 70.125C79.9531 70.5625 79.7344 70.9688 79.4219 71.3438C79.1719 71.6562 78.7969 71.8125 78.2969 71.8125C77.5469 71.8125 76.3281 71.8125 74.6406 71.8125C73.0156 71.8125 71.1406 71.8125 69.0156 71.8125C66.9531 71.75 64.7969 71.7188 62.5469 71.7188C60.2969 71.6562 58.2031 71.5938 56.2656 71.5312C54.3281 71.4062 52.6719 71.2812 51.2969 71.1562C49.9219 70.9688 49.0781 70.7812 48.7656 70.5938C48.5156 70.2188 48.3281 69.75 48.2031 69.1875C48.0781 68.625 47.9844 68.0312 47.9219 67.4062C47.9219 66.7812 47.9219 66.1875 47.9219 65.625C47.9219 65 47.9219 64.4688 47.9219 64.0312C47.9219 59.7188 48.1719 55.4062 48.6719 51.0938C49.2344 46.7812 49.5156 42.4688 49.5156 38.1562L49.4219 20.7188C49.4219 18.0312 49.2656 15.375 48.9531 12.75C48.6406 10.125 48.4844 7.5 48.4844 4.875C48.4844 3.125 48.9531 2.03125 49.8906 1.59375C50.8281 1.15625 52.0781 0.9375 53.6406 0.9375C54.7656 0.9375 56.3281 0.9375 58.3281 0.9375C60.3906 0.875 62.4844 0.875 64.6094 0.9375C66.7969 1 68.8281 1.125 70.7031 1.3125C72.6406 1.4375 74.0469 1.6875 74.9219 2.0625C75.4219 3.25 75.6719 4.40625 75.6719 5.53125C75.6719 7.59375 75.0781 9.53125 73.8906 11.3438C72.7031 13.0937 71.3906 14.7188 69.9531 16.2188C68.5156 17.7188 67.2031 19.0625 66.0156 20.25C64.8281 21.4375 64.2344 22.4375 64.2344 23.25C64.2344 23.5625 64.3594 23.8438 64.6094 24.0938ZM95.9219 27.1875C95.6719 25.6875 95.5156 24.1875 95.4531 22.6875C95.4531 21.1875 95.4531 19.6875 95.4531 18.1875V8.34375C95.4531 6.46875 95.6406 5.0625 96.0156 4.125C96.4531 3.1875 97.0781 2.53125 97.8906 2.15625C98.7656 1.71875 99.8281 1.5 101.078 1.5C102.328 1.4375 103.766 1.40625 105.391 1.40625H128.172C129.484 1.40625 130.922 1.46875 132.484 1.59375C134.047 1.65625 135.359 2.125 136.422 3C137.297 3.75 138.016 5.15625 138.578 7.21875C139.141 9.21875 139.547 11.5625 139.797 14.25C140.109 16.9375 140.297 19.8125 140.359 22.875C140.484 25.875 140.547 28.7812 140.547 31.5938C140.547 34.4062 140.516 36.9375 140.453 39.1875C140.391 41.4375 140.359 43.0938 140.359 44.1562C140.359 44.7188 140.359 45.7188 140.359 47.1562C140.359 48.5938 140.359 50.25 140.359 52.125C140.359 53.9375 140.328 55.8438 140.266 57.8438C140.266 59.8438 140.234 61.7188 140.172 63.4688C140.109 65.2188 140.016 66.7188 139.891 67.9688C139.766 69.1562 139.609 69.875 139.422 70.125C139.047 70.5625 138.453 70.9062 137.641 71.1562C136.828 71.3438 135.953 71.5 135.016 71.625C134.141 71.75 133.266 71.8438 132.391 71.9062C131.516 71.9062 130.797 71.9062 130.234 71.9062C128.297 71.9062 126.547 71.9688 124.984 72.0938C123.422 72.2812 122.047 72.25 120.859 72C119.672 71.6875 118.641 71.0625 117.766 70.125C116.891 69.125 116.203 67.5 115.703 65.25C114.766 61.25 114.297 57.125 114.297 52.875C114.297 51.3125 114.516 49.75 114.953 48.1875C115.391 46.625 115.859 45.1562 116.359 43.7812C116.859 42.4062 117.328 41.1562 117.766 40.0312C118.203 38.9062 118.422 37.9375 118.422 37.125C118.422 36.8125 118.297 36.5312 118.047 36.2812C117.859 36.0312 117.672 35.8438 117.484 35.7188C116.547 35.7188 115.734 36.5 115.047 38.0625C114.422 39.5625 113.891 41.3125 113.453 43.3125C113.078 45.25 112.797 47.1562 112.609 49.0312C112.484 50.9062 112.422 52.1875 112.422 52.875C112.422 54.375 112.516 55.875 112.703 57.375C112.953 58.8125 113.203 60.25 113.453 61.6875C113.766 63.125 114.047 64.5625 114.297 66C114.547 67.4375 114.672 68.875 114.672 70.3125C114.672 70.625 114.641 70.9062 114.578 71.1562C114.578 71.4062 114.547 71.6875 114.484 72C113.797 72.0625 113.078 72.0938 112.328 72.0938C111.578 72.1562 110.859 72.1875 110.172 72.1875C108.547 72.1875 106.953 72.1562 105.391 72.0938C103.891 72.0312 102.328 72 100.703 72C98.8906 72 97.6719 71.6875 97.0469 71.0625C96.4844 70.375 96.1406 69.125 96.0156 67.3125C95.7656 62.4375 95.5781 57.5625 95.4531 52.6875C95.3906 47.75 95.3594 42.8438 95.3594 37.9688C95.3594 35.2812 95.8906 32.9062 96.9531 30.8438C98.0156 28.7812 99.4219 27.0312 101.172 25.5938C102.984 24.1562 105.016 23 107.266 22.125C109.578 21.25 111.953 20.6562 114.391 20.3438C114.641 20.2812 115.109 20.2188 115.797 20.1562C116.484 20.0938 117.203 20 117.953 19.875C118.703 19.75 119.359 19.5625 119.922 19.3125C120.484 19.0625 120.766 18.75 120.766 18.375C120.766 17.6875 120.422 17.2812 119.734 17.1562C119.047 17.0312 118.484 16.9688 118.047 16.9688C115.422 16.9688 112.922 17.5 110.547 18.5625C108.234 19.5625 106.141 20.7188 104.266 22.0312C102.391 23.2812 100.734 24.4688 99.2969 25.5938C97.9219 26.6562 96.8281 27.2188 96.0156 27.2812L95.9219 27.1875ZM175.422 70.3125C173.984 71.25 172.359 71.8125 170.547 72C168.734 72.1875 167.016 72.2812 165.391 72.2812C161.641 72.2812 157.859 72.2188 154.047 72.0938C150.297 72.0312 146.578 71.5625 142.891 70.6875C142.578 70.0625 142.422 69.125 142.422 67.875C142.422 66.625 142.422 65.6562 142.422 64.9688C142.422 60.2812 142.609 55.6562 142.984 51.0938C143.359 46.4688 143.578 41.8125 143.641 37.125C143.703 33.125 143.641 29.125 143.453 25.125C143.266 21.125 143.172 17.125 143.172 13.125C143.172 11.6875 143.172 10.1563 143.172 8.53125C143.234 6.90625 143.453 5.375 143.828 3.9375C144.891 3.0625 146.109 2.46875 147.484 2.15625C148.859 1.84375 150.234 1.6875 151.609 1.6875C154.422 1.6875 156.859 2.1875 158.922 3.1875C160.984 4.1875 162.734 5.4375 164.172 6.9375C165.609 8.375 166.797 9.96875 167.734 11.7188C168.672 13.4687 169.484 15.0938 170.172 16.5938C170.859 18.0938 171.484 19.375 172.047 20.4375C172.609 21.4375 173.172 21.9688 173.734 22.0312C174.047 21.8438 174.203 21.5 174.203 21C174.203 19.1875 173.828 17.5312 173.078 16.0312C172.328 14.4688 171.453 12.9688 170.453 11.5312C169.516 10.0937 168.609 8.65625 167.734 7.21875C166.922 5.71875 166.422 4.15625 166.234 2.53125C166.797 2.28125 167.516 2.09375 168.391 1.96875C169.266 1.84375 170.172 1.75 171.109 1.6875C172.047 1.625 172.953 1.59375 173.828 1.59375C174.766 1.59375 175.516 1.59375 176.078 1.59375C176.641 1.59375 177.328 1.59375 178.141 1.59375C179.016 1.59375 179.891 1.65625 180.766 1.78125C181.641 1.84375 182.484 1.96875 183.297 2.15625C184.109 2.28125 184.766 2.46875 185.266 2.71875C185.453 3.15625 185.609 3.71875 185.734 4.40625C185.859 5.03125 185.922 5.6875 185.922 6.375C185.984 7.0625 186.016 7.75 186.016 8.4375C186.016 9.0625 186.016 9.625 186.016 10.125C186.016 14.0625 185.859 18 185.547 21.9375C185.297 25.875 185.172 29.8125 185.172 33.75C185.172 39 185.297 44.1875 185.547 49.3125C185.859 54.4375 186.016 59.625 186.016 64.875C186.016 65.8125 185.984 66.7812 185.922 67.7812C185.859 68.7188 185.734 69.6562 185.547 70.5938C185.047 70.9688 184.516 71.3125 183.953 71.625C183.391 71.875 182.766 72 182.078 72C181.453 72 180.859 71.8438 180.297 71.5312C179.797 71.2188 179.422 70.7812 179.172 70.2188C178.984 69.7812 178.797 68.875 178.609 67.5C178.484 66.0625 178.328 64.5312 178.141 62.9062C177.953 61.2188 177.766 59.5938 177.578 58.0312C177.453 56.4062 177.297 55.1875 177.109 54.375C176.609 52.125 176.078 50 175.516 48C174.953 45.9375 174.297 43.9375 173.547 42C172.797 40.0625 171.922 38.1562 170.922 36.2812C169.922 34.4062 168.734 32.5312 167.359 30.6562C166.984 30.1562 166.422 29.5 165.672 28.6875C164.984 27.8125 164.203 27 163.328 26.25C162.516 25.4375 161.672 24.75 160.797 24.1875C159.922 23.5625 159.172 23.25 158.547 23.25L157.703 24C157.703 24.5625 157.984 25.2812 158.547 26.1562C159.109 26.9688 159.734 27.8125 160.422 28.6875C161.109 29.5 161.828 30.2812 162.578 31.0312C163.328 31.7188 163.891 32.2812 164.266 32.7188C165.953 34.4688 167.516 36.75 168.953 39.5625C170.453 42.3125 171.734 45.25 172.797 48.375C173.922 51.5 174.797 54.625 175.422 57.75C176.047 60.875 176.359 63.625 176.359 66C176.359 66.6875 176.328 67.4375 176.266 68.25C176.203 69 175.922 69.6562 175.422 70.2188V70.3125ZM204.953 20.7188C204.953 20.9688 205.328 21.2188 206.078 21.4688C206.891 21.7188 207.797 21.9688 208.797 22.2188C209.797 22.4688 210.766 22.6875 211.703 22.875C212.641 23.0625 213.297 23.2188 213.672 23.3438C216.609 24.5938 219.047 26 220.984 27.5625C222.984 29.125 224.578 30.9062 225.766 32.9062C226.953 34.8438 227.797 37.0625 228.297 39.5625C228.797 42.0625 229.047 44.8438 229.047 47.9062C229.047 51.4062 228.953 54.875 228.766 58.3125C228.578 61.75 228.203 65.1875 227.641 68.625C227.203 69.4375 226.641 70.0938 225.953 70.5938C225.266 71.0312 224.516 71.375 223.703 71.625C222.891 71.8125 222.047 71.9375 221.172 72C220.297 72.0625 219.453 72.0938 218.641 72.0938H204.391C203.703 72.0938 202.672 72.0625 201.297 72C199.922 72 198.484 71.9688 196.984 71.9062C195.484 71.7812 194.047 71.6562 192.672 71.5312C191.359 71.3438 190.422 71.0938 189.859 70.7812C189.484 70.2188 189.172 69.0938 188.922 67.4062C188.734 65.7188 188.578 63.9062 188.453 61.9688C188.391 59.9688 188.359 58.0938 188.359 56.3438C188.359 54.5312 188.359 53.2188 188.359 52.4062C188.359 50.4062 188.328 48.3438 188.266 46.2188C188.266 44.0938 188.422 42.0312 188.734 40.0312C189.984 41.3438 191.359 42.875 192.859 44.625C194.422 46.3125 196.047 47.9375 197.734 49.5C199.484 51 201.297 52.2812 203.172 53.3438C205.109 54.3438 207.078 54.8438 209.078 54.8438C209.453 54.8438 209.859 54.7812 210.297 54.6562C210.734 54.4688 210.953 54.125 210.953 53.625C210.953 53.3125 210.797 53.0625 210.484 52.875C210.234 52.6875 210.016 52.5312 209.828 52.4062C208.391 51.5312 206.922 50.7812 205.422 50.1562C203.922 49.5312 202.453 48.875 201.016 48.1875C199.578 47.4375 198.203 46.5938 196.891 45.6562C195.578 44.7188 194.391 43.5312 193.328 42.0938C192.141 40.5312 191.203 38.9375 190.516 37.3125C189.891 35.625 189.391 33.9062 189.016 32.1562C188.703 30.4062 188.484 28.625 188.359 26.8125C188.297 25 188.266 23.1562 188.266 21.2812C188.266 18.6562 188.391 16.0625 188.641 13.5C188.953 10.875 189.422 8.28125 190.047 5.71875C190.734 4.78125 191.828 4.0625 193.328 3.5625C194.891 3 196.547 2.59375 198.297 2.34375C200.109 2.03125 201.859 1.84375 203.547 1.78125C205.234 1.71875 206.609 1.6875 207.672 1.6875C210.484 1.6875 213.391 1.71875 216.391 1.78125C219.391 1.84375 222.266 2.0625 225.016 2.4375C226.203 2.625 227.109 3.03125 227.734 3.65625C228.359 4.28125 228.797 5.03125 229.047 5.90625C229.359 6.78125 229.547 7.75 229.609 8.8125C229.672 9.8125 229.703 10.7812 229.703 11.7188C229.703 14.9062 229.672 18.0938 229.609 21.2812C229.547 24.4062 229.516 27.5625 229.516 30.75C228.016 29.625 226.453 28.4062 224.828 27.0938C223.203 25.7188 221.484 24.4688 219.672 23.3438C217.922 22.1562 216.078 21.1875 214.141 20.4375C212.266 19.625 210.359 19.2188 208.422 19.2188C207.922 19.2188 207.234 19.2812 206.359 19.4062C205.484 19.5312 204.984 19.9375 204.859 20.625L204.953 20.7188ZM261.578 70.2188C261.141 67.4062 260.891 64.625 260.828 61.875C260.766 59.0625 260.453 56.25 259.891 53.4375C259.703 52.6875 259.328 51.5938 258.766 50.1562C258.203 48.6562 257.484 47.1875 256.609 45.75C255.797 44.25 254.891 42.9688 253.891 41.9062C252.953 40.7812 252.016 40.2188 251.078 40.2188L250.141 41.0625C250.141 41.5 250.578 42.2188 251.453 43.2188C252.391 44.1562 253.391 45.5625 254.453 47.4375C255.516 49.25 256.484 51.5625 257.359 54.375C258.234 57.125 258.672 60.5 258.672 64.5C258.672 64.9375 258.641 65.5625 258.578 66.375C258.516 67.1875 258.391 68 258.203 68.8125C258.016 69.5625 257.703 70.25 257.266 70.875C256.891 71.4375 256.359 71.7188 255.672 71.7188C252.672 71.8438 249.703 71.9062 246.766 71.9062C243.828 71.8438 240.859 71.8125 237.859 71.8125C236.422 71.8125 235.297 71.2812 234.484 70.2188C233.672 69.1562 233.078 67.875 232.703 66.375C232.328 64.875 232.078 63.3438 231.953 61.7812C231.891 60.2188 231.859 58.9688 231.859 58.0312C231.859 53.7812 231.984 49.5938 232.234 45.4688C232.547 41.2812 232.703 37.0625 232.703 32.8125C232.703 28.625 232.578 24.4688 232.328 20.3438C232.078 16.1563 231.953 12 231.953 7.875C231.953 5.0625 232.672 3.21875 234.109 2.34375C235.609 1.40625 237.672 0.9375 240.297 0.9375C240.672 0.9375 241.141 0.96875 241.703 1.03125C242.266 1.03125 242.828 1.09375 243.391 1.21875C244.016 1.28125 244.578 1.40625 245.078 1.59375C245.578 1.78125 245.953 2.03125 246.203 2.34375C246.391 2.65625 246.547 3.59375 246.672 5.15625C246.859 6.65625 247.016 8.375 247.141 10.3125C247.328 12.1875 247.484 14.0312 247.609 15.8438C247.797 17.5938 248.016 18.875 248.266 19.6875C248.453 20.3125 248.797 21.25 249.297 22.5C249.859 23.6875 250.516 24.9062 251.266 26.1562C252.016 27.3438 252.797 28.4062 253.609 29.3438C254.484 30.2188 255.328 30.6562 256.141 30.6562C256.328 30.6562 256.547 30.5312 256.797 30.2812C257.047 30.0312 257.172 29.8125 257.172 29.625C257.172 29.0625 256.766 28.2188 255.953 27.0938C255.203 25.9062 254.328 24.4375 253.328 22.6875C252.391 20.875 251.516 18.7812 250.703 16.4062C249.953 14.0312 249.578 11.375 249.578 8.4375C249.578 6.5625 249.766 4.6875 250.141 2.8125C251.453 1.9375 253.016 1.46875 254.828 1.40625C256.641 1.28125 258.297 1.21875 259.797 1.21875H271.891C274.203 1.21875 275.797 1.6875 276.672 2.625C277.547 3.5625 277.984 5.09375 277.984 7.21875C277.984 17.9062 278.016 28.5625 278.078 39.1875C278.141 49.75 278.109 60.375 277.984 71.0625C277.609 71.25 277.078 71.375 276.391 71.4375C275.703 71.5 274.984 71.5625 274.234 71.625C273.484 71.625 272.734 71.625 271.984 71.625C271.297 71.625 270.766 71.625 270.391 71.625C269.641 71.625 268.828 71.6875 267.953 71.8125C267.141 71.875 266.328 71.9062 265.516 71.9062C264.703 71.8438 263.953 71.7188 263.266 71.5312C262.578 71.2812 262.016 70.8438 261.578 70.2188ZM280.703 27.1875C280.453 25.6875 280.297 24.1875 280.234 22.6875C280.234 21.1875 280.234 19.6875 280.234 18.1875V8.34375C280.234 6.46875 280.422 5.0625 280.797 4.125C281.234 3.1875 281.859 2.53125 282.672 2.15625C283.547 1.71875 284.609 1.5 285.859 1.5C287.109 1.4375 288.547 1.40625 290.172 1.40625H312.953C314.266 1.40625 315.703 1.46875 317.266 1.59375C318.828 1.65625 320.141 2.125 321.203 3C322.078 3.75 322.797 5.15625 323.359 7.21875C323.922 9.21875 324.328 11.5625 324.578 14.25C324.891 16.9375 325.078 19.8125 325.141 22.875C325.266 25.875 325.328 28.7812 325.328 31.5938C325.328 34.4062 325.297 36.9375 325.234 39.1875C325.172 41.4375 325.141 43.0938 325.141 44.1562C325.141 44.7188 325.141 45.7188 325.141 47.1562C325.141 48.5938 325.141 50.25 325.141 52.125C325.141 53.9375 325.109 55.8438 325.047 57.8438C325.047 59.8438 325.016 61.7188 324.953 63.4688C324.891 65.2188 324.797 66.7188 324.672 67.9688C324.547 69.1562 324.391 69.875 324.203 70.125C323.828 70.5625 323.234 70.9062 322.422 71.1562C321.609 71.3438 320.734 71.5 319.797 71.625C318.922 71.75 318.047 71.8438 317.172 71.9062C316.297 71.9062 315.578 71.9062 315.016 71.9062C313.078 71.9062 311.328 71.9688 309.766 72.0938C308.203 72.2812 306.828 72.25 305.641 72C304.453 71.6875 303.422 71.0625 302.547 70.125C301.672 69.125 300.984 67.5 300.484 65.25C299.547 61.25 299.078 57.125 299.078 52.875C299.078 51.3125 299.297 49.75 299.734 48.1875C300.172 46.625 300.641 45.1562 301.141 43.7812C301.641 42.4062 302.109 41.1562 302.547 40.0312C302.984 38.9062 303.203 37.9375 303.203 37.125C303.203 36.8125 303.078 36.5312 302.828 36.2812C302.641 36.0312 302.453 35.8438 302.266 35.7188C301.328 35.7188 300.516 36.5 299.828 38.0625C299.203 39.5625 298.672 41.3125 298.234 43.3125C297.859 45.25 297.578 47.1562 297.391 49.0312C297.266 50.9062 297.203 52.1875 297.203 52.875C297.203 54.375 297.297 55.875 297.484 57.375C297.734 58.8125 297.984 60.25 298.234 61.6875C298.547 63.125 298.828 64.5625 299.078 66C299.328 67.4375 299.453 68.875 299.453 70.3125C299.453 70.625 299.422 70.9062 299.359 71.1562C299.359 71.4062 299.328 71.6875 299.266 72C298.578 72.0625 297.859 72.0938 297.109 72.0938C296.359 72.1562 295.641 72.1875 294.953 72.1875C293.328 72.1875 291.734 72.1562 290.172 72.0938C288.672 72.0312 287.109 72 285.484 72C283.672 72 282.453 71.6875 281.828 71.0625C281.266 70.375 280.922 69.125 280.797 67.3125C280.547 62.4375 280.359 57.5625 280.234 52.6875C280.172 47.75 280.141 42.8438 280.141 37.9688C280.141 35.2812 280.672 32.9062 281.734 30.8438C282.797 28.7812 284.203 27.0312 285.953 25.5938C287.766 24.1562 289.797 23 292.047 22.125C294.359 21.25 296.734 20.6562 299.172 20.3438C299.422 20.2812 299.891 20.2188 300.578 20.1562C301.266 20.0938 301.984 20 302.734 19.875C303.484 19.75 304.141 19.5625 304.703 19.3125C305.266 19.0625 305.547 18.75 305.547 18.375C305.547 17.6875 305.203 17.2812 304.516 17.1562C303.828 17.0312 303.266 16.9688 302.828 16.9688C300.203 16.9688 297.703 17.5 295.328 18.5625C293.016 19.5625 290.922 20.7188 289.047 22.0312C287.172 23.2812 285.516 24.4688 284.078 25.5938C282.703 26.6562 281.609 27.2188 280.797 27.2812L280.703 27.1875Z" fill="url(#paint0_linear_10_11)"/>
<defs>
<linearGradient id="paint0_linear_10_11" x1="-9" y1="35" x2="331" y2="35" gradientUnits="userSpaceOnUse">
<stop stop-color="#FF82C6"/>
<stop offset="1" stop-color="#8AD9FA"/>
</linearGradient>
</defs>
</svg>
