<svg width="887" height="103" viewBox="0 0 887 103" fill="none" xmlns="http://www.w3.org/2000/svg">
<path d="M26.1531 9.608C33.2571 9.608 39.4651 11.016 44.7771 13.832C50.0891 16.648 54.1851 20.616 57.0651 25.736C60.0091 30.792 61.4811 36.648 61.4811 43.304C61.4811 49.896 60.0091 55.752 57.0651 60.872C54.1851 65.992 50.0571 69.96 44.6811 72.776C39.3691 75.592 33.1931 77 26.1531 77H0.905125V9.608H26.1531ZM25.0971 62.792C31.3051 62.792 36.1371 61.096 39.5931 57.704C43.0491 54.312 44.7771 49.512 44.7771 43.304C44.7771 37.096 43.0491 32.264 39.5931 28.808C36.1371 25.352 31.3051 23.624 25.0971 23.624H17.3211V62.792H25.0971ZM95.0391 77.768C89.7911 77.768 85.0551 76.648 80.8311 74.408C76.6711 72.168 73.3751 68.968 70.9431 64.808C68.5751 60.648 67.3911 55.784 67.3911 50.216C67.3911 44.712 68.6071 39.88 71.0391 35.72C73.4711 31.496 76.7991 28.264 81.0231 26.024C85.2471 23.784 89.9831 22.664 95.2311 22.664C100.479 22.664 105.215 23.784 109.439 26.024C113.663 28.264 116.991 31.496 119.423 35.72C121.855 39.88 123.071 44.712 123.071 50.216C123.071 55.72 121.823 60.584 119.327 64.808C116.895 68.968 113.535 72.168 109.247 74.408C105.023 76.648 100.287 77.768 95.0391 77.768ZM95.0391 63.56C98.1751 63.56 100.831 62.408 103.007 60.104C105.247 57.8 106.367 54.504 106.367 50.216C106.367 45.928 105.279 42.632 103.103 40.328C100.991 38.024 98.3671 36.872 95.2311 36.872C92.0311 36.872 89.3751 38.024 87.2631 40.328C85.1511 42.568 84.0951 45.864 84.0951 50.216C84.0951 54.504 85.1191 57.8 87.1671 60.104C89.2791 62.408 91.9031 63.56 95.0391 63.56ZM128.516 50.216C128.516 44.648 129.636 39.784 131.876 35.624C134.18 31.464 137.348 28.264 141.38 26.024C145.476 23.784 150.148 22.664 155.396 22.664C162.116 22.664 167.716 24.424 172.196 27.944C176.74 31.464 179.716 36.424 181.124 42.824H163.652C162.18 38.728 159.332 36.68 155.108 36.68C152.1 36.68 149.7 37.864 147.908 40.232C146.116 42.536 145.22 45.864 145.22 50.216C145.22 54.568 146.116 57.928 147.908 60.296C149.7 62.6 152.1 63.752 155.108 63.752C159.332 63.752 162.18 61.704 163.652 57.608H181.124C179.716 63.88 176.74 68.808 172.196 72.392C167.652 75.976 162.052 77.768 155.396 77.768C150.148 77.768 145.476 76.648 141.38 74.408C137.348 72.168 134.18 68.968 131.876 64.808C129.636 60.648 128.516 55.784 128.516 50.216ZM219.761 63.08V77H211.409C205.457 77 200.817 75.56 197.489 72.68C194.161 69.736 192.497 64.968 192.497 58.376V37.064H185.969V23.432H192.497V10.376H208.913V23.432H219.665V37.064H208.913V58.568C208.913 60.168 209.297 61.32 210.065 62.024C210.833 62.728 212.113 63.08 213.905 63.08H219.761ZM253.289 77.768C248.041 77.768 243.305 76.648 239.081 74.408C234.921 72.168 231.625 68.968 229.193 64.808C226.825 60.648 225.641 55.784 225.641 50.216C225.641 44.712 226.857 39.88 229.289 35.72C231.721 31.496 235.049 28.264 239.273 26.024C243.497 23.784 248.233 22.664 253.481 22.664C258.729 22.664 263.465 23.784 267.689 26.024C271.913 28.264 275.241 31.496 277.673 35.72C280.105 39.88 281.321 44.712 281.321 50.216C281.321 55.72 280.073 60.584 277.577 64.808C275.145 68.968 271.785 72.168 267.497 74.408C263.273 76.648 258.537 77.768 253.289 77.768ZM253.289 63.56C256.425 63.56 259.081 62.408 261.257 60.104C263.497 57.8 264.617 54.504 264.617 50.216C264.617 45.928 263.529 42.632 261.353 40.328C259.241 38.024 256.617 36.872 253.481 36.872C250.281 36.872 247.625 38.024 245.513 40.328C243.401 42.568 242.345 45.864 242.345 50.216C242.345 54.504 243.369 57.8 245.417 60.104C247.529 62.408 250.153 63.56 253.289 63.56ZM306.446 32.36C308.366 29.416 310.766 27.112 313.646 25.448C316.526 23.72 319.726 22.856 323.246 22.856V40.232H318.734C314.638 40.232 311.566 41.128 309.518 42.92C307.47 44.648 306.446 47.72 306.446 52.136V77H290.03V23.432H306.446V32.36ZM411.724 77H395.308L367.852 35.432V77H351.436V9.608H367.852L395.308 51.368V9.608H411.724V77ZM474.12 49.352C474.12 50.888 474.024 52.488 473.832 54.152H436.68C436.936 57.48 437.992 60.04 439.848 61.832C441.768 63.56 444.104 64.424 446.856 64.424C450.952 64.424 453.8 62.696 455.4 59.24H472.872C471.976 62.76 470.344 65.928 467.976 68.744C465.672 71.56 462.76 73.768 459.24 75.368C455.72 76.968 451.784 77.768 447.432 77.768C442.184 77.768 437.512 76.648 433.416 74.408C429.32 72.168 426.12 68.968 423.816 64.808C421.512 60.648 420.36 55.784 420.36 50.216C420.36 44.648 421.48 39.784 423.72 35.624C426.024 31.464 429.224 28.264 433.32 26.024C437.416 23.784 442.12 22.664 447.432 22.664C452.616 22.664 457.224 23.752 461.256 25.928C465.288 28.104 468.424 31.208 470.664 35.24C472.968 39.272 474.12 43.976 474.12 49.352ZM457.32 45.032C457.32 42.216 456.36 39.976 454.44 38.312C452.52 36.648 450.12 35.816 447.24 35.816C444.488 35.816 442.152 36.616 440.232 38.216C438.376 39.816 437.224 42.088 436.776 45.032H457.32ZM559.676 23.432L545.18 77H527.036L518.588 42.248L509.852 77H491.804L477.212 23.432H493.628L501.212 61.736L510.236 23.432H527.612L536.732 61.544L544.22 23.432H559.676ZM587.728 77.768C583.056 77.768 578.896 76.968 575.248 75.368C571.6 73.768 568.72 71.592 566.608 68.84C564.496 66.024 563.312 62.888 563.056 59.432H579.28C579.472 61.288 580.336 62.792 581.872 63.944C583.408 65.096 585.296 65.672 587.536 65.672C589.584 65.672 591.152 65.288 592.24 64.52C593.392 63.688 593.968 62.632 593.968 61.352C593.968 59.816 593.168 58.696 591.568 57.992C589.968 57.224 587.376 56.392 583.792 55.496C579.952 54.6 576.752 53.672 574.192 52.712C571.632 51.688 569.424 50.12 567.568 48.008C565.712 45.832 564.784 42.92 564.784 39.272C564.784 36.2 565.616 33.416 567.28 30.92C569.008 28.36 571.504 26.344 574.768 24.872C578.096 23.4 582.032 22.664 586.576 22.664C593.296 22.664 598.576 24.328 602.416 27.656C606.32 30.984 608.56 35.4 609.136 40.904H593.968C593.712 39.048 592.88 37.576 591.472 36.488C590.128 35.4 588.336 34.856 586.096 34.856C584.176 34.856 582.704 35.24 581.68 36.008C580.656 36.712 580.144 37.704 580.144 38.984C580.144 40.52 580.944 41.672 582.544 42.44C584.208 43.208 586.768 43.976 590.224 44.744C594.192 45.768 597.424 46.792 599.92 47.816C602.416 48.776 604.592 50.376 606.448 52.616C608.368 54.792 609.36 57.736 609.424 61.448C609.424 64.584 608.528 67.4 606.736 69.896C605.008 72.328 602.48 74.248 599.152 75.656C595.888 77.064 592.08 77.768 587.728 77.768ZM665.059 9.608C672.163 9.608 678.371 11.016 683.683 13.832C688.995 16.648 693.091 20.616 695.971 25.736C698.915 30.792 700.387 36.648 700.387 43.304C700.387 49.896 698.915 55.752 695.971 60.872C693.091 65.992 688.963 69.96 683.587 72.776C678.275 75.592 672.099 77 665.059 77H639.811V9.608H665.059ZM664.003 62.792C670.211 62.792 675.043 61.096 678.499 57.704C681.955 54.312 683.683 49.512 683.683 43.304C683.683 37.096 681.955 32.264 678.499 28.808C675.043 25.352 670.211 23.624 664.003 23.624H656.227V62.792H664.003ZM706.297 50.12C706.297 44.616 707.321 39.784 709.369 35.624C711.481 31.464 714.329 28.264 717.913 26.024C721.497 23.784 725.497 22.664 729.913 22.664C733.689 22.664 736.985 23.432 739.801 24.968C742.681 26.504 744.889 28.52 746.425 31.016V23.432H762.841V77H746.425V69.416C744.825 71.912 742.585 73.928 739.705 75.464C736.889 77 733.593 77.768 729.817 77.768C725.465 77.768 721.497 76.648 717.913 74.408C714.329 72.104 711.481 68.872 709.369 64.712C707.321 60.488 706.297 55.624 706.297 50.12ZM746.425 50.216C746.425 46.12 745.273 42.888 742.969 40.52C740.729 38.152 737.977 36.968 734.713 36.968C731.449 36.968 728.665 38.152 726.361 40.52C724.121 42.824 723.001 46.024 723.001 50.12C723.001 54.216 724.121 57.48 726.361 59.912C728.665 62.28 731.449 63.464 734.713 63.464C737.977 63.464 740.729 62.28 742.969 59.912C745.273 57.544 746.425 54.312 746.425 50.216ZM782.974 17.864C780.094 17.864 777.726 17.032 775.87 15.368C774.078 13.64 773.182 11.528 773.182 9.032C773.182 6.472 774.078 4.36 775.87 2.696C777.726 0.967995 780.094 0.103994 782.974 0.103994C785.79 0.103994 788.094 0.967995 789.886 2.696C791.742 4.36 792.67 6.472 792.67 9.032C792.67 11.528 791.742 13.64 789.886 15.368C788.094 17.032 785.79 17.864 782.974 17.864ZM791.134 23.432V77H774.718V23.432H791.134ZM819.446 5.96V77H803.03V5.96H819.446ZM886.063 23.432L852.463 102.44H834.799L847.087 75.176L825.295 23.432H843.631L856.015 56.936L868.303 23.432H886.063Z" fill="#AD103A"/>
</svg>
