<svg width="25" height="24" viewBox="0 0 25 24" fill="none" xmlns="http://www.w3.org/2000/svg">
<g id="Social">
<path id="Vector" fill-rule="evenodd" clip-rule="evenodd" d="M23.9667 12.2667C23.9667 11.4667 23.8333 10.5334 23.7 9.8667H12.5V14.5334H18.9C18.6333 16 17.8333 17.2 16.5 18.1334V21.2H20.5C22.7667 19.0667 23.9667 15.8667 23.9667 12.2667Z" fill="#4285F4"/>
<path id="Vector_2" fill-rule="evenodd" clip-rule="evenodd" d="M12.5007 23.9999C15.7007 23.9999 18.5007 22.9332 20.5007 21.0666L16.5007 18.1332C15.434 18.7999 14.1007 19.3332 12.5007 19.3332C9.43398 19.3332 6.76732 17.1999 5.83398 14.3999H1.83398V17.3332C3.70065 21.3332 7.83398 23.9999 12.5007 23.9999Z" fill="#34A853"/>
<path id="Vector_3" fill-rule="evenodd" clip-rule="evenodd" d="M5.83333 14.2665C5.56667 13.5998 5.43333 12.7998 5.43333 11.9998C5.43333 11.1998 5.56667 10.3998 5.83333 9.73317V6.6665H1.83333C1.03333 8.2665 0.5 10.1332 0.5 11.9998C0.5 13.8665 0.9 15.7332 1.83333 17.3332L5.83333 14.2665Z" fill="#FBBC05"/>
<path id="Vector_4" fill-rule="evenodd" clip-rule="evenodd" d="M12.5007 4.8C14.234 4.8 15.834 5.46667 17.034 6.53333L20.5007 3.06667C18.5007 1.2 15.7007 0 12.5007 0C7.83398 0 3.70065 2.66667 1.83398 6.66667L5.83398 9.73333C6.76732 6.93333 9.43398 4.8 12.5007 4.8Z" fill="#EA4335"/>
</g>
</svg>
