<svg width="457" height="78" viewBox="0 0 457 78" fill="none" xmlns="http://www.w3.org/2000/svg">
<path d="M77.147 9.608V77H60.731V36.584L45.659 77H32.411L17.243 36.488V77H0.827V9.608H20.219L39.131 56.264L57.851 9.608H77.147ZM139.448 49.352C139.448 50.888 139.352 52.488 139.16 54.152H102.008C102.264 57.48 103.32 60.04 105.176 61.832C107.096 63.56 109.432 64.424 112.184 64.424C116.28 64.424 119.128 62.696 120.728 59.24H138.2C137.304 62.76 135.672 65.928 133.304 68.744C131 71.56 128.088 73.768 124.568 75.368C121.048 76.968 117.112 77.768 112.76 77.768C107.512 77.768 102.84 76.648 98.744 74.408C94.648 72.168 91.448 68.968 89.144 64.808C86.84 60.648 85.688 55.784 85.688 50.216C85.688 44.648 86.808 39.784 89.048 35.624C91.352 31.464 94.552 28.264 98.648 26.024C102.744 23.784 107.448 22.664 112.76 22.664C117.944 22.664 122.552 23.752 126.584 25.928C130.616 28.104 133.752 31.208 135.992 35.24C138.296 39.272 139.448 43.976 139.448 49.352ZM122.648 45.032C122.648 42.216 121.688 39.976 119.768 38.312C117.848 36.648 115.448 35.816 112.568 35.816C109.816 35.816 107.48 36.616 105.56 38.216C103.704 39.816 102.552 42.088 102.104 45.032H122.648ZM144.844 50.12C144.844 44.616 145.868 39.784 147.916 35.624C150.028 31.464 152.876 28.264 156.46 26.024C160.044 23.784 164.044 22.664 168.46 22.664C171.98 22.664 175.18 23.4 178.06 24.872C181.004 26.344 183.308 28.328 184.972 30.824V5.96H201.388V77H184.972V69.32C183.436 71.88 181.228 73.928 178.348 75.464C175.532 77 172.236 77.768 168.46 77.768C164.044 77.768 160.044 76.648 156.46 74.408C152.876 72.104 150.028 68.872 147.916 64.712C145.868 60.488 144.844 55.624 144.844 50.12ZM184.972 50.216C184.972 46.12 183.82 42.888 181.516 40.52C179.276 38.152 176.524 36.968 173.26 36.968C169.996 36.968 167.212 38.152 164.908 40.52C162.668 42.824 161.548 46.024 161.548 50.12C161.548 54.216 162.668 57.48 164.908 59.912C167.212 62.28 169.996 63.464 173.26 63.464C176.524 63.464 179.276 62.28 181.516 59.912C183.82 57.544 184.972 54.312 184.972 50.216ZM221.521 17.864C218.641 17.864 216.273 17.032 214.417 15.368C212.625 13.64 211.729 11.528 211.729 9.032C211.729 6.472 212.625 4.36 214.417 2.696C216.273 0.967995 218.641 0.103994 221.521 0.103994C224.337 0.103994 226.641 0.967995 228.433 2.696C230.289 4.36 231.217 6.472 231.217 9.032C231.217 11.528 230.289 13.64 228.433 15.368C226.641 17.032 224.337 17.864 221.521 17.864ZM229.681 23.432V77H213.265V23.432H229.681ZM238.313 50.216C238.313 44.648 239.433 39.784 241.673 35.624C243.977 31.464 247.145 28.264 251.177 26.024C255.273 23.784 259.945 22.664 265.193 22.664C271.913 22.664 277.513 24.424 281.993 27.944C286.537 31.464 289.513 36.424 290.921 42.824H273.449C271.977 38.728 269.129 36.68 264.905 36.68C261.897 36.68 259.497 37.864 257.705 40.232C255.913 42.536 255.017 45.864 255.017 50.216C255.017 54.568 255.913 57.928 257.705 60.296C259.497 62.6 261.897 63.752 264.905 63.752C269.129 63.752 271.977 61.704 273.449 57.608H290.921C289.513 63.88 286.537 68.808 281.993 72.392C277.449 75.976 271.849 77.768 265.193 77.768C259.945 77.768 255.273 76.648 251.177 74.408C247.145 72.168 243.977 68.968 241.673 64.808C239.433 60.648 238.313 55.784 238.313 50.216ZM296.438 50.12C296.438 44.616 297.462 39.784 299.51 35.624C301.622 31.464 304.47 28.264 308.054 26.024C311.638 23.784 315.638 22.664 320.054 22.664C323.83 22.664 327.126 23.432 329.942 24.968C332.822 26.504 335.03 28.52 336.566 31.016V23.432H352.982V77H336.566V69.416C334.966 71.912 332.726 73.928 329.846 75.464C327.03 77 323.734 77.768 319.958 77.768C315.606 77.768 311.638 76.648 308.054 74.408C304.47 72.104 301.622 68.872 299.51 64.712C297.462 60.488 296.438 55.624 296.438 50.12ZM336.566 50.216C336.566 46.12 335.414 42.888 333.11 40.52C330.87 38.152 328.118 36.968 324.854 36.968C321.59 36.968 318.806 38.152 316.502 40.52C314.262 42.824 313.142 46.024 313.142 50.12C313.142 54.216 314.262 57.48 316.502 59.912C318.806 62.28 321.59 63.464 324.854 63.464C328.118 63.464 330.87 62.28 333.11 59.912C335.414 57.544 336.566 54.312 336.566 50.216ZM381.274 32.36C383.194 29.416 385.594 27.112 388.474 25.448C391.354 23.72 394.554 22.856 398.074 22.856V40.232H393.562C389.466 40.232 386.394 41.128 384.346 42.92C382.298 44.648 381.274 47.72 381.274 52.136V77H364.858V23.432H381.274V32.36ZM456.417 49.352C456.417 50.888 456.321 52.488 456.129 54.152H418.977C419.233 57.48 420.289 60.04 422.145 61.832C424.065 63.56 426.401 64.424 429.153 64.424C433.249 64.424 436.097 62.696 437.697 59.24H455.169C454.273 62.76 452.641 65.928 450.273 68.744C447.969 71.56 445.057 73.768 441.537 75.368C438.017 76.968 434.081 77.768 429.729 77.768C424.481 77.768 419.809 76.648 415.713 74.408C411.617 72.168 408.417 68.968 406.113 64.808C403.809 60.648 402.657 55.784 402.657 50.216C402.657 44.648 403.777 39.784 406.017 35.624C408.321 31.464 411.521 28.264 415.617 26.024C419.713 23.784 424.417 22.664 429.729 22.664C434.913 22.664 439.521 23.752 443.553 25.928C447.585 28.104 450.721 31.208 452.961 35.24C455.265 39.272 456.417 43.976 456.417 49.352ZM439.617 45.032C439.617 42.216 438.657 39.976 436.737 38.312C434.817 36.648 432.417 35.816 429.537 35.816C426.785 35.816 424.449 36.616 422.529 38.216C420.673 39.816 419.521 42.088 419.073 45.032H439.617Z" fill="#10AD3E"/>
</svg>
